<?xml version="1.0" encoding="iso-8859-1"?>
<!-- Generator: Adobe Illustrator 19.0.0, SVG Export Plug-In . SVG Version: 6.00 Build 0)  -->
<svg version="1.1" id="Layer_1" xmlns="http://www.w3.org/2000/svg" xmlns:xlink="http://www.w3.org/1999/xlink" x="0px" y="0px"
	 viewBox="0 0 512 512" style="enable-background:new 0 0 512 512;" xml:space="preserve">
<path d="M146.608,99.164l25.072,4.04c-4.136,11.152-10.24,19.624-18.336,25.44c-8.088,5.816-17.464,8.72-28.128,8.72
	c-12.168,0-21.816-3.624-28.936-10.872c-7.136-7.248-10.696-17.224-10.696-29.928c0-10.368,2.16-20.16,6.472-29.384
	s10.816-16.496,19.504-21.8s18.216-7.952,28.576-7.952c11.264,0,20.248,2.936,26.96,8.808c6.712,5.872,10.488,13.6,11.328,23.184
	l-24.544,2.608c-0.592-5.336-2.224-9.256-4.896-11.776c-2.664-2.512-6.16-3.776-10.472-3.776c-4.968,0-9.616,1.848-13.928,5.568
	c-4.312,3.712-7.624,9.272-9.928,16.672s-3.464,14.328-3.464,20.808c0,5.632,1.384,9.976,4.136,13.032
	c2.76,3.056,6.2,4.576,10.336,4.576c4.136,0,8.12-1.496,11.952-4.496C141.448,109.652,144.448,105.156,146.608,99.164z"/>
<path d="M203.4,39.676h24.264L225.24,51.26c9.464-9.216,19.408-13.832,29.832-13.832c7.184,0,12.728,1.504,16.624,4.496
	c3.888,3,6.384,7.136,7.464,12.408c3.288-4.8,8.024-8.816,14.192-12.048s12.584-4.848,19.232-4.848c7.608,0,13.536,2.04,17.8,6.112
	c4.248,4.08,6.376,9.472,6.376,16.176c0,3.296-0.832,8.984-2.512,17.072l-12.216,58.328h-25.8l12.224-58.328
	c1.496-7.304,2.24-11.44,2.24-12.4c0-2.632-0.792-4.72-2.384-6.248c-1.584-1.52-3.968-2.288-7.144-2.288
	c-6.416,0-12.136,3.392-17.168,10.16c-3.656,4.848-6.776,13.456-9.344,25.792l-9.08,43.32h-25.8l12.048-57.696
	c1.376-6.648,2.064-10.96,2.064-12.944c0-2.512-0.848-4.576-2.56-6.192c-1.704-1.616-4.056-2.432-7.056-2.432
	c-2.816,0-5.72,0.84-8.712,2.512c-3,1.68-5.616,3.984-7.864,6.92c-2.248,2.936-4.176,6.712-5.8,11.32
	c-0.72,2.16-1.88,7.048-3.504,14.648l-9.168,43.856h-25.792L203.4,39.676z"/>
<path d="M344.584,108.42l24.984-3.96c2.208,5.272,4.968,9.008,8.264,11.192s7.792,3.272,13.48,3.272
	c5.872,0,10.576-1.312,14.112-3.952c2.464-1.8,3.688-3.984,3.688-6.552c0-1.744-0.632-3.296-1.888-4.68
	c-1.312-1.312-4.88-2.928-10.688-4.848c-15.584-5.152-25.224-9.224-28.944-12.216c-5.808-4.672-8.712-10.792-8.712-18.336
	s2.816-14.048,8.448-19.496c7.848-7.608,19.504-11.416,34.96-11.416c12.28,0,21.56,2.248,27.856,6.744
	c6.288,4.496,10.272,10.568,11.952,18.24l-23.824,4.128c-1.256-3.48-3.296-6.08-6.112-7.824c-3.832-2.336-8.448-3.504-13.832-3.504
	c-5.4,0-9.272,0.896-11.64,2.696s-3.544,3.856-3.544,6.192c0,2.4,1.192,4.376,3.592,5.936c1.496,0.952,6.32,2.632,14.472,5.032
	c12.576,3.656,20.992,7.248,25.248,10.784c5.992,4.976,8.984,10.968,8.984,17.976c0,9.048-3.808,16.888-11.416,23.544
	c-7.608,6.648-18.328,9.976-32.168,9.976c-13.784,0-24.432-2.528-31.944-7.592C352.384,124.7,347.28,117.588,344.584,108.42z"/>
<g>
	<rect x="251.992" y="173.7" style="fill:#CCCCCC;" width="8" height="153.52"/>
	<polygon style="fill:#CCCCCC;" points="441.44,327.228 433.44,327.228 433.44,254.596 78.528,254.596 78.528,327.228 
		70.528,327.228 70.528,246.596 441.44,246.596 	"/>
</g>
<rect x="197.664" y="358.028" style="fill:#BBBBBB;" width="116.536" height="116.536"/>
<rect x="399.456" y="362.028" style="fill:#FFFFFF;" width="108.536" height="108.536"/>
<path style="fill:#E21B1B;" d="M504,366.036v100.536H403.464V366.036H504 M512,358.036H395.464v116.536H512V358.036L512,358.036z"/>
<rect x="4" y="362.028" style="fill:#FFFFFF;" width="108.536" height="108.536"/>
<path style="fill:#E21B1B;" d="M108.536,366.036v100.536H8V366.036H108.536 M116.536,358.036H0v116.536h116.536V358.036
	L116.536,358.036z"/>
<g>
</g>
<g>
</g>
<g>
</g>
<g>
</g>
<g>
</g>
<g>
</g>
<g>
</g>
<g>
</g>
<g>
</g>
<g>
</g>
<g>
</g>
<g>
</g>
<g>
</g>
<g>
</g>
<g>
</g>
</svg>
