<svg version="1.1" id="Layer_1" xmlns="http://www.w3.org/2000/svg" xmlns:xlink="http://www.w3.org/1999/xlink" x="0px" y="0px"
	 viewBox="0 0 504 504" style="enable-background:new 0 0 504 504;" xml:space="preserve">
<circle style="fill:#FFD05B;" cx="252" cy="252" r="252"/>
<path style="fill:#324A5E;" d="M355.8,94.5H106.3c-6.5,0-11.8,5.3-11.8,11.8v187.9c0,6.5,5.3,11.8,11.8,11.8h249.4
	c6.5,0,11.8-5.3,11.8-11.8V106.3C367.6,99.8,362.3,94.5,355.8,94.5z"/>
<path style="fill:#F6F6F6;" d="M336.3,118.1H125.8c-4.2,0-7.6,3.4-7.6,7.6v149c0,4.2,3.4,7.6,7.6,7.6h210.6c4.2,0,7.6-3.4,7.6-7.6
	v-149C344,121.5,340.5,118.1,336.3,118.1z"/>
<polygon style="fill:#2B3B4E;" points="290,332.7 280.3,306 181.8,306 172.1,332.7 153.8,332.7 153.8,347.8 166.5,347.8
	295.6,347.8 308.3,347.8 308.3,332.7 "/>
<path style="fill:#F1543F;" d="M407.6,409.5h-90.8c-1,0-1.9-0.8-1.9-1.9V276.2c0-1,0.8-1.9,1.9-1.9h90.8c1,0,1.9,0.8,1.9,1.9v131.5
	C409.5,408.7,408.7,409.5,407.6,409.5z"/>
<rect x="328" y="287.3" style="fill:#4CDBC4;" width="68.5" height="92.9"/>
<circle style="fill:#324A5E;" cx="362.3" cy="394.8" r="9"/>
<g>
	<rect x="328" y="390.4" style="fill:#E6E9EE;" width="17.8" height="8.8"/>
	<rect x="378.7" y="390.4" style="fill:#E6E9EE;" width="17.8" height="8.8"/>
</g>
<rect x="134.1" y="129.2" style="fill:#F1543F;" width="33.6" height="25.3"/>
<rect x="188" y="129.2" style="fill:#FF7058;" width="139.9" height="25.3"/>
<rect x="134.1" y="207.1" style="fill:#FFD05B;" width="33.6" height="25.3"/>
<rect x="188" y="207.1" style="fill:#F9B54C;" width="139.9" height="25.3"/>
<rect x="134.1" y="246.1" style="fill:#4CDBC4;" width="53.9" height="25.3"/>
<rect x="274" y="246.1" style="fill:#84DBFF;" width="53.9" height="25.3"/>
<g>
	<rect x="204.1" y="246.1" style="fill:#2C9984;" width="53.9" height="25.3"/>
	<rect x="134.1" y="168.2" style="fill:#2C9984;" width="53.9" height="25.3"/>
	<rect x="274" y="168.2" style="fill:#2C9984;" width="53.9" height="25.3"/>
	<rect x="204.1" y="168.2" style="fill:#2C9984;" width="53.9" height="25.3"/>
</g>
<g>
</g>
<g>
</g>
<g>
</g>
<g>
</g>
<g>
</g>
<g>
</g>
<g>
</g>
<g>
</g>
<g>
</g>
<g>
</g>
<g>
</g>
<g>
</g>
<g>
</g>
<g>
</g>
<g>
</g>
</svg>
