<svg id="Capa_1" enable-background="new 0 0 512 512" height="512" viewBox="0 0 512 512" width="512" xmlns="http://www.w3.org/2000/svg"><g><g><path d="m199.397 385.693h111.375v87.187h-111.375z" fill="#dae7ef"/></g><g><path d="m278.574 385.693h32.198v87.187h-32.198z" fill="#c1d5e4"/></g><g><path d="m17.5 310.786-10 21.592v46.887c0 11.046 8.954 20 20 20h457c11.046 0 20-8.954 20-20v-46.887l-10-21.592z" fill="#dae7ef"/></g><g><path d="m494.5 310.786h-35.146v23.334c0 11.046-8.954 20-20 20h-431.854v25.146c0 11.046 8.954 20 20 20h457c11.046 0 20-8.954 20-20v-46.887z" fill="#c1d5e4"/></g><g><path d="m484.5 68.824h-457c-11.046 0-20 8.954-20 20v243.554h497v-243.554c0-11.046-8.954-20-20-20z" fill="#61a2f9"/></g><g><path d="m484.5 68.824h-25.146v263.554h45.146v-243.554c0-11.046-8.954-20-20-20z" fill="#4a81f6"/></g><g><path d="m484.5 406.766h-457c-15.164 0-27.5-12.337-27.5-27.5v-290.442c0-15.163 12.336-27.5 27.5-27.5h457c15.164 0 27.5 12.337 27.5 27.5v290.441c0 15.164-12.336 27.501-27.5 27.501zm-457-330.442c-6.893 0-12.5 5.607-12.5 12.5v290.441c0 6.893 5.607 12.5 12.5 12.5h457c6.893 0 12.5-5.607 12.5-12.5v-290.441c0-6.893-5.607-12.5-12.5-12.5z" fill="#98b9d3"/></g><g><path d="m340.913 480.38h-171.658c-4.143 0-7.5-3.357-7.5-7.5s3.357-7.5 7.5-7.5h171.658c4.143 0 7.5 3.357 7.5 7.5s-3.357 7.5-7.5 7.5z" fill="#98b9d3"/></g><g><circle cx="255.084" cy="161.65" fill="#86f1a7" r="130.03"/></g><g><path d="m326.968 53.303c13.69 20.593 21.683 45.301 21.683 71.883 0 71.813-58.216 130.03-130.03 130.03-26.582 0-51.29-7.993-71.884-21.683 23.295 35.04 63.116 58.146 108.347 58.146 71.813 0 130.03-58.216 130.03-130.03 0-45.23-23.106-85.051-58.146-108.346z" fill="#78d090"/></g><path d="m322.153 113.19c-1.717-2.035-4.229-3.202-6.892-3.202h-112.06l-1.557-8.248c-1.6-8.479-9.024-14.635-17.654-14.635h-8.02c-4.143 0-7.5 3.357-7.5 7.5s3.357 7.5 7.5 7.5h8.02c1.425 0 2.65 1.016 2.914 2.417l22.196 117.564c.669 3.543 3.765 6.108 7.37 6.108h5.06c-2.215 2.476-3.574 5.735-3.574 9.319 0 7.73 6.267 13.997 13.997 13.997s13.997-6.267 13.997-13.997c0-3.584-1.358-6.843-3.574-9.319h30.854c-2.215 2.476-3.574 5.735-3.574 9.319 0 7.73 6.267 13.997 13.997 13.997s13.997-6.267 13.997-13.997c0-3.584-1.358-6.843-3.574-9.319h6.749c4.143 0 7.5-3.357 7.5-7.5s-3.357-7.5-7.5-7.5h-78.141l-3.06-16.207h83.818c3.604 0 6.697-2.562 7.369-6.104l13.312-70.227c.008-.045.017-.09.024-.135.451-2.624-.277-5.295-1.994-7.331zm-18.096 32.797h-21.531l1.535-20.999h23.977zm-54.19 36-1.535-21h18.056l-1.535 21zm-2.631-36-1.535-20.999h23.318l-1.535 20.999zm-16.576-20.999 1.535 20.999h-22.197l-3.965-20.999zm-17.83 35.999h20.462l1.535 21h-18.031zm67.064 21 1.535-21h19.784l-3.981 21z" fill="#f6f9f9"/><g><g><path d="m93.212 271.351h-44.361c-4.143 0-7.5-3.357-7.5-7.5s3.357-7.5 7.5-7.5h44.361c4.143 0 7.5 3.357 7.5 7.5s-3.358 7.5-7.5 7.5z" fill="#f6f9f9"/></g><g><path d="m131.625 305.18h-82.774c-4.143 0-7.5-3.357-7.5-7.5s3.357-7.5 7.5-7.5h82.774c4.143 0 7.5 3.357 7.5 7.5s-3.357 7.5-7.5 7.5z" fill="#f6f9f9"/></g></g><path d="m471.196 130.891h-18.77v-18.771c0-4.143-3.357-7.5-7.5-7.5s-7.5 3.357-7.5 7.5v18.771h-18.771c-4.143 0-7.5 3.357-7.5 7.5s3.357 7.5 7.5 7.5h18.771v18.771c0 4.143 3.357 7.5 7.5 7.5s7.5-3.357 7.5-7.5v-18.771h18.77c4.143 0 7.5-3.357 7.5-7.5s-3.357-7.5-7.5-7.5z" fill="#f6f9f9"/></g></svg>